<?xml version="1.0" encoding="UTF-8"?><svg id="Layer_1" xmlns="http://www.w3.org/2000/svg" width="752.44" height="682.42" viewBox="0 0 752.44 682.42"><defs><style>.cls-1{fill:#3b82f6;}</style></defs><path class="cls-1" d="M245.57,681.92c-40.75,0-78.72-21.92-99.1-57.21L15.83,398.42c-20.37-35.29-20.37-79.14,0-114.43L146.48,57.71C166.85,22.42,204.82.5,245.57.5h261.29c40.75,0,78.72,21.92,99.1,57.21l130.65,226.29c20.37,35.29,20.37,79.14,0,114.43l-130.65,226.29c-20.38,35.29-58.35,57.21-99.1,57.21H245.57Z"/><path d="M506.86,1c40.57,0,78.38,21.83,98.66,56.96l130.65,226.29c20.29,35.14,20.29,78.79,0,113.93l-130.65,226.29c-20.29,35.14-58.09,56.96-98.66,56.96H245.57c-40.57,0-78.38-21.83-98.66-56.96L16.26,398.17c-20.29-35.14-20.29-78.79,0-113.93L146.91,57.96C167.2,22.83,205,1,245.57,1h261.29M506.86,0H245.57c-41.06,0-79,21.9-99.53,57.46L15.4,283.75c-20.53,35.56-20.53,79.37,0,114.93l130.65,226.29c20.53,35.56,58.47,57.46,99.53,57.46h261.29c41.06,0,79-21.9,99.53-57.46l130.65-226.29c20.53-35.56,20.53-79.37,0-114.93l-130.65-226.29C585.86,21.9,547.92,0,506.86,0h0Z"/></svg>